<?xml version="1.0" encoding="UTF-8"?>
<svg width="170px" height="32px" viewBox="0 0 170 32" version="1.1" xmlns="http://www.w3.org/2000/svg" xmlns:xlink="http://www.w3.org/1999/xlink">
    <!-- Generator: sketchtool 49.1 (51147) - http://www.bohemiancoding.com/sketch -->
    <title>09CF4EB0-9380-4479-B45B-7C8DF63E4B57</title>
    <desc>Created with sketchtool.</desc>
    <defs></defs>
    <g id="download-latest-app" stroke="none" stroke-width="1" fill="none" fill-rule="evenodd">
        <g id="UAS---download-app" transform="translate(-822.000000, -197.000000)">
            <g id="content" transform="translate(719.000000, 111.000000)">
                <g id="header" transform="translate(0.000000, 70.000000)">
                    <g id="carfax_logo_solid-copy-2" transform="translate(103.000000, 16.000000)">
                        <path d="M162.841657,28.66 C162.841657,29.9982222 161.724966,31.0817778 160.348309,31.0817778 L3.38625313,31.0817778 C2.01004341,31.0817778 0.893352626,29.9982222 0.893352626,28.66 L0.893352626,3.30933333 C0.893352626,1.97111111 2.01004341,0.887555556 3.38625313,0.887555556 L160.348309,0.887555556 C161.724966,0.887555556 162.841657,1.97111111 162.841657,3.30933333 L162.841657,28.66" id="Fill-1" fill="#FFFFFE"></path>
                        <path d="M1.57096059,28.66 L1.57096059,3.30933333 C1.57096059,2.34533333 2.38525151,1.56133333 3.38625313,1.56133333 L160.348309,1.56133333 C161.349758,1.56133333 162.164049,2.34533333 162.164049,3.30933333 L162.164049,28.66 C162.164049,29.6235556 161.349758,30.4075556 160.348309,30.4075556 L3.38625313,30.4075556 C2.38525151,30.4075556 1.57096059,29.6235556 1.57096059,28.66 Z M3.38625313,0.213333333 C1.63796204,0.213333333 0.215744659,1.60222222 0.215744659,3.30933333 L0.215744659,28.66 C0.215744659,30.3671111 1.63796204,31.7555556 3.38625313,31.7555556 L160.348309,31.7555556 C162.097047,31.7555556 163.518818,30.3671111 163.518818,28.66 L163.518818,3.30933333 C163.518818,1.60222222 162.097047,0.213333333 160.348309,0.213333333 L3.38625313,0.213333333 Z" id="Fill-2" fill="#1A1919"></path>
                        <polygon id="Fill-3" fill="#FFFFFE" points="135.882061 28.7733333 160.523407 28.7733333 160.523407 3.12666667 135.882061 3.12666667"></polygon>
                        <path d="M160.183039,3.46488889 C160.183039,4.11511111 160.183039,27.7848889 160.183039,28.4351111 C159.530892,28.4351111 136.874576,28.4351111 136.222428,28.4351111 C136.222428,27.7848889 136.222428,4.11511111 136.222428,3.46488889 C136.874576,3.46488889 159.530892,3.46488889 160.183039,3.46488889 Z M135.541694,29.112 L160.863774,29.112 L160.863774,2.788 L135.541694,2.788 L135.541694,29.112 Z" id="Fill-4" fill="#1A1919"></path>
                        <polygon id="Fill-5" fill="#1A1919" points="29.8545047 28.8084444 54.4985303 28.8084444 54.4985303 3.16133333 29.8545047 3.16133333"></polygon>
                        <path d="M54.1586096,3.49955556 C54.1586096,4.14977778 54.1586096,27.8195556 54.1586096,28.4697778 C53.5060155,28.4697778 30.8470195,28.4697778 30.1948721,28.4697778 C30.1948721,27.8195556 30.1948721,4.14977778 30.1948721,3.49955556 C30.8470195,3.49955556 53.5060155,3.49955556 54.1586096,3.49955556 Z M29.514584,29.1466667 L54.8384509,29.1466667 L54.8384509,2.82266667 L29.514584,2.82266667 L29.514584,29.1466667 Z" id="Fill-6" fill="#1A1919"></path>
                        <polygon id="Fill-7" fill="#1A1919" points="56.2754086 28.8084444 80.9189875 28.8084444 80.9189875 3.16133333 56.2754086 3.16133333"></polygon>
                        <path d="M80.5790668,3.49955556 C80.5790668,4.14977778 80.5790668,27.8195556 80.5790668,28.4697778 C79.9269194,28.4697778 57.2679234,28.4697778 56.615776,28.4697778 C56.615776,27.8195556 56.615776,4.14977778 56.615776,3.49955556 C57.2679234,3.49955556 79.9269194,3.49955556 80.5790668,3.49955556 Z M55.935488,29.1466667 L81.2589082,29.1466667 L81.2589082,2.82266667 L55.935488,2.82266667 L55.935488,29.1466667 Z" id="Fill-8" fill="#1A1919"></path>
                        <polygon id="Fill-9" fill="#1A1919" points="82.8687296 28.8084444 107.509628 28.8084444 107.509628 3.16133333 82.8687296 3.16133333"></polygon>
                        <path d="M107.169708,3.49955556 C107.169708,4.14977778 107.169708,27.8195556 107.169708,28.4697778 C106.51756,28.4697778 83.8612444,28.4697778 83.2090969,28.4697778 C83.2090969,27.8195556 83.2090969,4.14977778 83.2090969,3.49955556 C83.8612444,3.49955556 106.51756,3.49955556 107.169708,3.49955556 Z M82.5288089,29.1466667 L107.849996,29.1466667 L107.849996,2.82266667 L82.5288089,2.82266667 L82.5288089,29.1466667 Z" id="Fill-10" fill="#1A1919"></path>
                        <polygon id="Fill-11" fill="#1A1919" points="109.462944 28.8084444 134.105629 28.8084444 134.105629 3.16133333 109.462944 3.16133333"></polygon>
                        <path d="M133.765709,3.49955556 C133.765709,4.14977778 133.765709,27.8195556 133.765709,28.4697778 C133.113561,28.4697778 110.455012,28.4697778 109.802865,28.4697778 C109.802865,27.8195556 109.802865,4.14977778 109.802865,3.49955556 C110.455012,3.49955556 133.113561,3.49955556 133.765709,3.49955556 Z M109.122577,29.1466667 L134.445997,29.1466667 L134.445997,2.82266667 L109.122577,2.82266667 L109.122577,29.1466667 Z" id="Fill-12" fill="#1A1919"></path>
                        <polygon id="Fill-13" fill="#1A1919" points="3.26163044 28.8084444 27.9034226 28.8084444 27.9034226 3.16133333 3.26163044 3.16133333"></polygon>
                        <path d="M27.5635019,3.49955556 C27.5635019,4.14977778 27.5635019,27.8195556 27.5635019,28.4697778 C26.9109078,28.4697778 4.2541452,28.4697778 3.60199779,28.4697778 C3.60199779,27.8195556 3.60199779,4.14977778 3.60199779,3.49955556 C4.2541452,3.49955556 26.9109078,3.49955556 27.5635019,3.49955556 Z M2.92170976,29.1466667 L28.2433433,29.1466667 L28.2433433,2.82266667 L2.92170976,2.82266667 L2.92170976,29.1466667 Z" id="Fill-14" fill="#1A1919"></path>
                        <path d="M16.1647691,25.2275556 C10.9136424,25.2275556 8.1143219,21.3635556 8.1143219,16.1488889 C8.1143219,10.4853333 11.4442938,7.07555556 16.1888896,7.07555556 C20.5332634,7.07555556 22.2498405,8.93333333 23.46212,12.2475556 L19.017244,13.9884444 C18.385197,12.3488889 17.7803973,11.3151111 16.1647691,11.3151111 C14.1180982,11.3151111 13.2336791,13.3573333 13.2336791,16.1488889 C13.2336791,18.8466667 14.0917443,20.9871111 16.2152435,20.9871111 C17.7540434,20.9871111 18.4119976,20.1555556 19.3714583,18.4915556 L23.5103611,20.6875556 C22.3271155,22.9928889 20.3550396,25.2275556 16.1647691,25.2275556" id="Fill-15" fill="#FFFFFE"></path>
                        <path d="M51.1564981,24.7502222 L44.7413329,7.16222222 L39.7921593,7.16222222 L33.3792275,24.7502222 L38.6299076,24.7502222 L39.589815,21.6382222 L44.8932028,21.6382222 L45.8526635,24.7502222 L51.1564981,24.7502222 Z M43.7068305,17.7826667 L40.777974,17.7826667 L41.1058344,16.6284444 C41.7374347,14.3933333 42.0166074,13.4177778 42.2435189,12.236 C42.4699838,13.4177778 42.7473698,14.3684444 43.3794168,16.6284444 L43.7068305,17.7826667 Z" id="Fill-16" fill="#FFFFFE"></path>
                        <path d="M76.3025878,24.8342222 L72.7653581,18.1213333 C74.7088467,17.2444444 75.9479268,15.6155556 75.9479268,12.9768889 C75.9479268,8.80533333 73.194614,7.24711111 69.0503512,7.24711111 L61.1446271,7.24711111 L61.1446271,24.8342222 L65.9664979,24.8342222 L65.9664979,18.896 L67.9381272,18.896 L70.8205294,24.8342222 L76.3025878,24.8342222 Z M71.0733482,13.104 C71.0733482,14.3626667 70.4417479,15.0657778 68.8484535,15.0657778 L65.9664979,15.0657778 L65.9664979,11.2146667 L68.9230484,11.2146667 C70.4654217,11.2146667 71.0733482,11.9982222 71.0733482,13.104 Z" id="Fill-17" fill="#FFFFFE"></path>
                        <polyline id="Fill-18" fill="#FFFFFE" points="93.0583096 11.3875556 93.0583096 13.8408889 98.585929 13.8408889 98.585929 17.9564444 93.0583096 17.9564444 93.0583096 24.8342222 88.1832844 24.8342222 88.1832844 7.24711111 102.17274 7.24711111 102.17274 11.3875556 93.0583096 11.3875556"></polyline>
                        <path d="M130.519712,24.8888889 L124.10544,7.30311111 L119.155373,7.30311111 L112.740655,24.8888889 L117.994015,24.8888889 L118.953922,21.7786667 L124.256863,21.7786667 L125.216324,24.8888889 L130.519712,24.8888889 Z M123.070044,17.9217778 L120.141188,17.9217778 L120.469495,16.768 C121.100649,14.5342222 121.377588,13.5555556 121.604499,12.3746667 C121.833644,13.5555556 122.110584,14.5062222 122.742184,16.768 L123.070044,17.9217778 Z" id="Fill-19" fill="#FFFFFE"></path>
                        <path d="M150.674641,29.0137778 L149.89519,27.8222222 C149.204182,26.7222222 148.513174,25.5471111 148.043717,24.5973333 C147.601508,25.5217778 146.882805,26.7222222 146.164103,27.8222222 L145.300678,29.0137778 L139.298242,29.0137778 L145.114414,20.9973333 L139.006115,12.3475556 L145.224743,12.3475556 L146.303019,14.0471111 C146.993134,15.1471111 147.739977,16.3222222 148.154493,17.2475556 C148.596256,16.3222222 149.343098,15.1471111 150.03366,14.0471111 L151.111937,12.3475556 L157.191201,12.3475556 L151.083796,20.8977778 L156.81644,29.0137778 L150.674641,29.0137778" id="Fill-20" fill="#1A1919"></path>
                        <path d="M167.799764,2.06311111 C167.799764,1.78222222 167.585359,1.64177778 167.158337,1.64177778 L166.342259,1.64177778 L166.342259,2.544 L167.18737,2.544 C167.595633,2.544 167.799764,2.38355556 167.799764,2.06311111 Z M168.237953,2.06444444 C168.237953,2.324 168.145938,2.53022222 167.963247,2.68311111 C167.781003,2.83555556 167.572852,2.912 167.338794,2.912 L168.185245,4.03422222 L167.663081,4.03422222 L166.821989,2.91911111 L166.342259,2.91911111 L166.342259,4.03422222 L165.925063,4.03422222 L165.925063,1.25644444 L167.290553,1.25644444 C167.596973,1.25644444 167.830138,1.33288889 167.993621,1.48533333 C168.156211,1.63777778 168.237953,1.83111111 168.237953,2.06444444 Z M168.87938,2.67555556 C168.87938,2.13244444 168.689096,1.66266667 168.308975,1.26488889 C167.928407,0.867111111 167.481284,0.668444444 166.968052,0.668444444 C166.421321,0.668444444 165.956331,0.867111111 165.573529,1.26488889 C165.189387,1.66266667 164.99821,2.136 164.99821,2.68533333 C164.99821,3.23511111 165.189387,3.70533333 165.573529,4.09644444 C165.956331,4.48711111 166.415067,4.68311111 166.948399,4.68311111 C167.47503,4.68311111 167.928407,4.48577778 168.308975,4.09111111 C168.689096,3.69688889 168.87938,3.22533333 168.87938,2.67555556 Z M169.246102,2.67555556 C169.246102,3.32355556 169.022763,3.876 168.576087,4.33244444 C168.129411,4.78888889 167.587146,5.01777778 166.948399,5.01777778 C166.309652,5.01777778 165.763366,4.79066667 165.310437,4.33733333 C164.85706,3.88355556 164.630595,3.33288889 164.630595,2.68533333 C164.630595,2.02444444 164.85572,1.46577778 165.305523,1.00888889 C165.75488,0.552444444 166.302951,0.323555556 166.948399,0.323555556 C167.587146,0.323555556 168.129411,0.552444444 168.576087,1.00888889 C169.022763,1.46577778 169.246102,2.02133333 169.246102,2.67555556 Z" id="Fill-21" fill="#1A1919"></path>
                        <path d="M165.339024,4.30888889 C164.895921,3.86533333 164.671243,3.31911111 164.671243,2.68533333 C164.671243,2.03866667 164.894581,1.484 165.335004,1.03688889 C165.774533,0.590666667 166.317245,0.364 166.948399,0.364 C167.571959,0.364 168.109757,0.590666667 168.547053,1.03688889 C168.983903,1.484 169.205901,2.03555556 169.205901,2.67555556 C169.205901,3.30977778 168.983903,3.85777778 168.547053,4.304 C168.110204,4.75066667 167.572405,4.97688889 166.948399,4.97688889 C166.323499,4.97688889 165.782127,4.752 165.339024,4.30888889 Z M165.276489,0.980444444 C164.820879,1.44311111 164.590394,2.01688889 164.590394,2.68533333 C164.590394,3.34133333 164.822666,3.90666667 165.281403,4.36622222 C165.740586,4.82533333 166.301611,5.05822222 166.948399,5.05822222 C167.595186,5.05822222 168.152638,4.82355556 168.605568,4.36044444 C169.057604,3.89822222 169.286749,3.33155556 169.286749,2.67555556 C169.286749,2.01333333 169.057604,1.44311111 168.605568,0.980444444 C168.152638,0.517777778 167.595186,0.283111111 166.948399,0.283111111 C166.294465,0.283111111 165.731652,0.517777778 165.276489,0.980444444 Z" id="Fill-22" fill="#1A1919"></path>
                        <path d="M165.602563,4.068 C165.228248,3.68666667 165.038411,3.22177778 165.038411,2.68533333 C165.038411,2.14888889 165.228248,1.68044444 165.602563,1.29288889 C165.975984,0.905333333 166.435168,0.708888889 166.968052,0.708888889 C167.467437,0.708888889 167.908753,0.905333333 168.279047,1.29288889 C168.650235,1.68088889 168.838733,2.14622222 168.838733,2.67555556 C168.838733,3.21155556 168.650235,3.67822222 168.279494,4.06311111 C167.908753,4.44755556 167.461183,4.64222222 166.948399,4.64222222 C166.428914,4.64222222 165.975984,4.44933333 165.602563,4.068 Z M165.544048,1.23688889 C165.154547,1.64 164.957562,2.12755556 164.957562,2.68533333 C164.957562,3.24355556 165.154547,3.728 165.544048,4.12488889 C165.93355,4.52222222 166.406134,4.72355556 166.948399,4.72355556 C167.48441,4.72355556 167.95208,4.52 168.338009,4.11911111 C168.724384,3.71911111 168.920028,3.23333333 168.920028,2.67555556 C168.920028,2.12444444 168.724384,1.64044444 168.338455,1.23688889 C167.951634,0.832888889 167.490664,0.628 166.968052,0.628 C166.412387,0.628 165.933103,0.832888889 165.544048,1.23688889 Z" id="Fill-23" fill="#1A1919"></path>
                        <path d="M167.290553,1.29688889 C167.584019,1.29688889 167.810931,1.37022222 167.965481,1.51466667 C168.119137,1.65866667 168.197306,1.84355556 168.197306,2.06444444 C168.197306,2.31377778 168.11199,2.50577778 167.93734,2.652 C167.763136,2.79733333 167.561685,2.87111111 167.338794,2.87111111 L167.257052,2.87111111 C167.257052,2.87111111 168.016848,3.87822222 168.10395,3.99333333 C167.987814,3.99333333 167.663081,3.99333333 167.663081,3.99333333 L166.854597,2.89466667 L166.342259,2.87866667 L166.302058,2.87866667 C166.302058,2.87866667 166.302058,3.91822222 166.302058,3.99333333 C166.24265,3.99333333 166.024672,3.99333333 165.965711,3.99333333 C165.965711,3.916 165.965711,1.37466667 165.965711,1.29688889 C166.042539,1.29688889 167.290553,1.29688889 167.290553,1.29688889 Z M165.884416,1.216 L165.884416,4.07466667 L166.382906,4.07466667 C166.382906,4.07466667 166.382906,3.03511111 166.382906,2.95955556 C166.451695,2.95955556 166.821989,2.95955556 166.821989,2.95955556 L167.630473,4.05822222 L168.185245,4.07466667 L168.266987,4.07466667 C168.266987,4.07466667 167.482624,3.03511111 167.410709,2.94 C167.623773,2.92488889 167.820311,2.856 167.989601,2.71422222 C168.181672,2.55422222 168.278154,2.33511111 168.278154,2.06444444 C168.278154,1.82044444 168.191946,1.61555556 168.021315,1.45555556 C167.851132,1.29644444 167.60546,1.216 167.290553,1.216 L165.884416,1.216 Z" id="Fill-24" fill="#1A1919"></path>
                        <path d="M167.158337,1.68222222 C167.362914,1.68222222 167.516571,1.71555556 167.616626,1.78088889 C167.712662,1.844 167.759116,1.936 167.759116,2.06311111 C167.759116,2.35955556 167.571959,2.50355556 167.18737,2.50355556 C167.18737,2.50355556 166.457055,2.50355556 166.382906,2.50355556 C166.382906,2.43288889 166.382906,1.75288889 166.382906,1.68222222 C166.456608,1.68222222 167.158337,1.68222222 167.158337,1.68222222 Z M166.302058,1.60133333 L166.302058,2.58444444 L167.18737,2.58444444 C167.621093,2.58444444 167.840411,2.40888889 167.840411,2.06311111 C167.840411,1.90888889 167.78011,1.79111111 167.661741,1.71333333 C167.548285,1.63911111 167.378995,1.60133333 167.158337,1.60133333 L166.302058,1.60133333 Z" id="Fill-25" fill="#1A1919"></path>
                    </g>
                </g>
            </g>
        </g>
    </g>
</svg>